<?xml version="1.0" encoding="utf-8"?>
<!-- Generator: Adobe Illustrator 21.0.0, SVG Export Plug-In . SVG Version: 6.00 Build 0)  -->
<svg version="1.1" id="Layer_1" xmlns="http://www.w3.org/2000/svg" xmlns:xlink="http://www.w3.org/1999/xlink" x="0px" y="0px"
	 viewBox="0 0 250 250" style="enable-background:new 0 0 250 250;" xml:space="preserve">
<style type="text/css">
	.st0{fill:#F9F9F9;}
	.st1{fill:#FFFFFF;}
</style>
<g>
	<rect x="61.4" y="11.2" class="st0" width="127.3" height="226.6"/>
	<g>
		<path d="M181.8,243.7H67.6c-6.2,0-11.2-5-11.2-11.2V16.9c0-6.2,5-11.2,11.2-11.2h114.3c6.2,0,11.2,5,11.2,11.2v215.6
			C193.1,238.7,188,243.7,181.8,243.7z M67.6,12.3c-2.6,0-4.6,2.1-4.6,4.6v215.6c0,2.6,2.1,4.6,4.6,4.6h114.3c2.6,0,4.6-2.1,4.6-4.6
			V16.9c0-2.6-2.1-4.6-4.6-4.6H67.6z"/>
	</g>
	<g>
		<ellipse transform="matrix(0.596 -0.803 0.803 0.596 -49.7566 150.5188)" cx="124.7" cy="124.7" rx="86.9" ry="47.3"/>
	</g>
	<g>
		<g>
			<path d="M97.4,37.4L81.7,52.1l-7.3-7.7l0,0l-0.7,22.4l22.4,0.7l-7.3-7.7c3.9-3.7,8.6-8.1,10.4-9.8C106,43.6,97.4,37.4,97.4,37.4z
				"/>
			<path class="st1" d="M97,67.8l-23.5-0.7l0.7-23.5l7.6,8.1L97.3,37l0.2,0.2c0.2,0.1,4.3,3.2,4.6,7.2c0.1,2.1-0.7,4-2.6,5.8
				l-10.2,9.6L97,67.8z M74.1,66.5l21.3,0.6l-7-7.4l10.7-10c1.7-1.6,2.5-3.4,2.4-5.2c-0.2-3.3-3.3-5.9-4.1-6.6L81.7,52.6l-7-7.4
				L74.1,66.5z"/>
		</g>
		<g>
			<path d="M82.1,51.5l15.6-14.7l7.3,7.7l0,0l0.7-22.4l-22.4-0.7l7.3,7.7c-3.9,3.7-8.6,8.1-10.4,9.8C73.4,45.3,82.1,51.5,82.1,51.5z
				"/>
			<path class="st1" d="M82.1,51.9l-0.2-0.2c-0.2-0.1-4.3-3.2-4.6-7.2c-0.1-2.1,0.7-4,2.6-5.8l10.2-9.6l-7.6-8.1l23.5,0.7l-0.7,23.5
				l-7.6-8.1L82.1,51.9z M84,21.8l7,7.4l-10.7,10c-1.7,1.6-2.5,3.4-2.4,5.2c0.2,3.3,3.3,5.9,4.1,6.6l15.7-14.8l7,7.4l0.6-21.3
				L84,21.8z"/>
		</g>
	</g>
	<g>
		<g>
			<path d="M172.5,201l-15.6,14.7l-7.3-7.7l0,0l-0.7,22.4l22.4,0.7l-7.3-7.7c3.9-3.7,8.6-8.1,10.4-9.8
				C181.1,207.2,172.5,201,172.5,201z"/>
			<path class="st1" d="M172.1,231.4l-23.5-0.7l0.7-23.5l7.6,8.1l15.6-14.7l0.2,0.2c0.2,0.1,4.3,3.2,4.6,7.2c0.1,2.1-0.7,4-2.6,5.8
				l-10.2,9.6L172.1,231.4z M149.3,230l21.3,0.6l-7-7.4l10.7-10c1.7-1.6,2.5-3.4,2.4-5.2c-0.2-3.3-3.3-5.9-4.1-6.6l-15.7,14.8
				l-7-7.4L149.3,230z"/>
		</g>
		<g>
			<path d="M157.2,215l15.6-14.7l7.3,7.7l0,0l0.7-22.4l-22.4-0.7l7.3,7.7c-3.9,3.7-8.6,8.1-10.4,9.8
				C148.6,208.8,157.2,215,157.2,215z"/>
			<path class="st1" d="M157.3,215.5l-0.2-0.2c-0.2-0.1-4.3-3.2-4.6-7.2c-0.1-2.1,0.7-4,2.6-5.8l10.2-9.6l-7.6-8.1l23.5,0.7
				l-0.7,23.5l-7.6-8.1L157.3,215.5z M159.2,185.3l7,7.4l-10.7,10c-1.7,1.6-2.5,3.4-2.4,5.2c0.2,3.3,3.3,5.9,4.1,6.6l15.7-14.8
				l7,7.4l0.6-21.3L159.2,185.3z"/>
		</g>
	</g>
	<g>
		<g>
			<path class="st1" d="M142.9,112.9l-31.1,29.3l-14.5-15.4l0,0l-1.3,44.6l44.6,1.3L126,157.3c7.7-7.3,17.1-16.1,20.7-19.5
				C160,125.2,142.9,112.9,142.9,112.9z"/>
			<path d="M141.3,173.1l-45.7-1.4L97,126l14.8,15.8l31-29.2l0.2,0.2c0.3,0.2,8.5,6.2,9,14.2c0.3,4-1.5,7.7-5.1,11.2l-20.5,19.3
				L141.3,173.1z M96.3,171.1l43.5,1.3l-14.2-15.1l21-19.8c3.5-3.3,5.2-6.9,4.9-10.7c-0.5-6.9-7.2-12.5-8.5-13.5l-31.1,29.3
				l-14.2-15.1L96.3,171.1z"/>
		</g>
		<g>
			<path class="st1" d="M112.4,140.9l31.1-29.3L158,127l0,0l1.3-44.6l-44.6-1.3l14.5,15.4c-7.7,7.3-17.1,16.1-20.7,19.5
				C95.3,128.6,112.4,140.9,112.4,140.9z"/>
			<path d="M112.5,141.3l-0.2-0.2c-0.3-0.2-8.5-6.2-9-14.2c-0.3-4,1.5-7.7,5.1-11.2l20.5-19.3L114,80.7l45.7,1.4l-1.4,45.7
				l-14.8-15.8L112.5,141.3z M115.6,81.4l14.2,15.1l-21,19.8c-3.5,3.3-5.2,6.9-4.9,10.7c0.5,6.9,7.2,12.5,8.5,13.5l31.1-29.3
				l14.2,15.1l1.3-43.5L115.6,81.4z"/>
		</g>
	</g>
</g>
</svg>
