<?xml version="1.0" encoding="utf-8"?>
<!-- Generator: Adobe Illustrator 21.0.0, SVG Export Plug-In . SVG Version: 6.00 Build 0)  -->
<svg version="1.1" id="Layer_1" xmlns="http://www.w3.org/2000/svg" xmlns:xlink="http://www.w3.org/1999/xlink" x="0px" y="0px"
	 viewBox="0 0 250 250" style="enable-background:new 0 0 250 250;" xml:space="preserve">
<style type="text/css">
	.st0{fill:#FFFFFF;}
</style>
<g>
	<path d="M0.9,16.5c4.4-4.4,10.3-5.8,13-3.1l100.3,100c2.7,2.7,1.3,8.6-3.1,13l-94.8,95.1c-4.4,4.4-10.3,5.8-13,3.1"/>
</g>
<g>
	<rect x="7.2" y="200.7" class="st0" width="36.9" height="36.9"/>
	<path d="M44.5,238H6.8v-37.6h37.6V238z M7.5,237.3h36.2v-36.2H7.5V237.3z"/>
</g>
<g>
	<path d="M38.8,204v13.2l-3.8-3.9c0,0-24.6,5.3-18.8,22.5c0,0-11-21.5,13-27.4l-3.4-4.2L38.8,204z"/>
</g>
<g>
	<path d="M158.7,226h-6.6c-4,0-7.2-3.3-7.2-7.2V19.2c0-4,3.3-7.2,7.2-7.2h6.6c4,0,7.2,3.3,7.2,7.2v199.6
		C165.9,222.8,162.7,226,158.7,226z"/>
</g>
<g>
	<path d="M242.8,226h-6.6c-4,0-7.2-3.3-7.2-7.2V19.2c0-4,3.3-7.2,7.2-7.2h6.6c4,0,7.2,3.3,7.2,7.2v199.6
		C250,222.8,246.7,226,242.8,226z"/>
</g>
</svg>
