<?xml version="1.0" encoding="utf-8"?>
<!-- Generator: Adobe Illustrator 21.0.0, SVG Export Plug-In . SVG Version: 6.00 Build 0)  -->
<svg version="1.1" id="Layer_1" xmlns="http://www.w3.org/2000/svg" xmlns:xlink="http://www.w3.org/1999/xlink" x="0px" y="0px"
	 viewBox="0 0 250 250" style="enable-background:new 0 0 250 250;" xml:space="preserve">
<style type="text/css">
	.st0{fill:#FFFFFF;}
	.st1{fill:#FFFFFF;stroke:#000000;stroke-width:4;stroke-miterlimit:10;}
</style>
<g>
	<path d="M238,215.7H12c-6.6,0-12-5.4-12-12V91.3c0-6.6,5.4-12,12-12h226c6.6,0,12,5.4,12,12v112.4C250,210.3,244.6,215.7,238,215.7
		z"/>
	<polygon points="185,81.7 65,81.7 80.8,29.4 169.2,29.4 	"/>
	<path class="st0" d="M136.2,68.2h-22.5c-6.6,0-12-5.4-12-12v-0.8c0-6.6,5.4-12,12-12h22.5c6.6,0,12,5.4,12,12v0.8
		C148.2,62.8,142.8,68.2,136.2,68.2z"/>
	<circle class="st0" cx="125" cy="149.9" r="53.9"/>
	<circle class="st1" cx="125" cy="149.9" r="46.9"/>
	<path d="M221.1,86.1h-9.2c-4.9,0-8.9-4-8.9-8.9v0c0-4.9,4-8.9,8.9-8.9h9.2c4.9,0,8.9,4,8.9,8.9v0C230,82,226,86.1,221.1,86.1z"/>
	<path d="M51.7,88.2h-29c-4.9,0-8.9-4-8.9-8.9v0c0-4.9,4-8.9,8.9-8.9h29c4.9,0,8.9,4,8.9,8.9v0C60.7,84.2,56.6,88.2,51.7,88.2z"/>
</g>
</svg>
