<?xml version="1.0" encoding="utf-8"?>
<!-- Generator: Adobe Illustrator 21.0.0, SVG Export Plug-In . SVG Version: 6.00 Build 0)  -->
<svg version="1.1" id="Layer_1" xmlns="http://www.w3.org/2000/svg" xmlns:xlink="http://www.w3.org/1999/xlink" x="0px" y="0px"
	 viewBox="0 0 250 250" style="enable-background:new 0 0 250 250;" xml:space="preserve">
<style type="text/css">
	.st0{fill:none;stroke:#000000;stroke-width:7;stroke-linecap:round;stroke-linejoin:bevel;stroke-miterlimit:10;}
</style>
<g>
	<g>
		<path d="M108.3,187.8c-0.6,0-1.2-0.3-1.7-0.8L58,129.1c-0.8-0.9-0.7-2.3,0.3-3.1c0.9-0.8,2.3-0.7,3.1,0.3l48.6,57.9
			c0.8,0.9,0.7,2.3-0.3,3.1C109.3,187.6,108.8,187.8,108.3,187.8z"/>
	</g>
</g>
<g>
	<g>
		<path d="M92.8,169.2c-0.6,0-1.2-0.3-1.7-0.8c-0.8-0.9-0.6-2.3,0.3-3.1l56.8-47.4c0.9-0.8,2.3-0.6,3.1,0.3c0.8,0.9,0.6,2.3-0.3,3.1
			l-56.8,47.4C93.8,169.1,93.3,169.2,92.8,169.2z"/>
	</g>
</g>
<g>
	<g>
		<path d="M177.8,166.6c-0.7,0-1.3-0.3-1.7-1l-28.3-44.9c-0.6-1-0.3-2.3,0.6-2.9c1-0.6,2.2-0.3,2.8,0.6l28.3,44.9
			c0.6,1,0.3,2.3-0.6,2.9C178.5,166.5,178.1,166.6,177.8,166.6z"/>
	</g>
</g>
<g>
	<g>
		<path d="M150.2,192.7c-0.6,0-1.2-0.2-1.6-0.7c-0.8-0.9-0.7-2.3,0.2-3.1l65.3-59.1c0.9-0.8,2.3-0.7,3.1,0.2
			c0.8,0.9,0.7,2.3-0.2,3.1l-65.3,59.1C151.3,192.5,150.7,192.7,150.2,192.7z"/>
	</g>
</g>
<g>
	<g>
		<path class="st0" d="M0.4,230.4"/>
	</g>
</g>
<g>
	<g>
		<path d="M52.9,81.9c-11.2,0-20.4-9.1-20.4-20.4c0-11.2,9.1-20.4,20.4-20.4s20.4,9.1,20.4,20.4C73.3,72.7,64.2,81.9,52.9,81.9z
			 M52.9,44.9c-9.2,0-16.6,7.5-16.6,16.6c0,9.2,7.5,16.6,16.6,16.6c9.2,0,16.6-7.5,16.6-16.6C69.6,52.3,62.1,44.9,52.9,44.9z"/>
	</g>
</g>
<g>
	<g>
		<path d="M52.9,39.1c-1,0-1.9-0.8-1.9-1.9V15.5c0-1,0.8-1.9,1.9-1.9c1,0,1.9,0.8,1.9,1.9v21.8C54.8,38.2,54,39.1,52.9,39.1z"/>
	</g>
</g>
<g>
	<g>
		<path d="M52.9,109.4c-1,0-1.9-0.8-1.9-1.9V85.8c0-1,0.8-1.9,1.9-1.9c1,0,1.9,0.8,1.9,1.9v21.8C54.8,108.6,54,109.4,52.9,109.4z"/>
	</g>
</g>
<g>
	<g>
		<path d="M99,63.4H77.2c-1,0-1.9-0.8-1.9-1.9s0.8-1.9,1.9-1.9H99c1,0,1.9,0.8,1.9,1.9S100,63.4,99,63.4z"/>
	</g>
</g>
<g>
	<g>
		<path d="M28.6,63.4H6.9c-1,0-1.9-0.8-1.9-1.9s0.8-1.9,1.9-1.9h21.8c1,0,1.9,0.8,1.9,1.9S29.7,63.4,28.6,63.4z"/>
	</g>
</g>
<g>
	<g>
		<path d="M90.5,90.1c-0.4,0-0.8-0.1-1.1-0.3L71.7,77.1c-0.8-0.6-1-1.8-0.4-2.6c0.6-0.8,1.8-1,2.6-0.4l17.7,12.6
			c0.8,0.6,1,1.8,0.4,2.6C91.6,89.8,91.1,90.1,90.5,90.1z"/>
	</g>
</g>
<g>
	<g>
		<path d="M33.1,49.3c-0.4,0-0.8-0.1-1.1-0.3L14.3,36.4c-0.8-0.6-1-1.8-0.4-2.6c0.6-0.8,1.8-1,2.6-0.4l17.7,12.6
			c0.8,0.6,1,1.8,0.4,2.6C34.3,49,33.7,49.3,33.1,49.3z"/>
	</g>
</g>
<g>
	<g>
		<path d="M69.3,45.4c-0.4,0-0.9-0.2-1.3-0.5c-0.8-0.7-0.8-1.9-0.1-2.6l14.6-16.1c0.7-0.8,1.9-0.8,2.6-0.1c0.8,0.7,0.8,1.9,0.1,2.6
			L70.6,44.8C70.3,45.2,69.8,45.4,69.3,45.4z"/>
	</g>
</g>
<g>
	<g>
		<path d="M22,97.5c-0.4,0-0.9-0.2-1.3-0.5c-0.8-0.7-0.8-1.9-0.1-2.6l14.6-16.1c0.7-0.8,1.9-0.8,2.6-0.1c0.8,0.7,0.8,1.9,0.1,2.6
			L23.4,96.9C23,97.3,22.5,97.5,22,97.5z"/>
	</g>
</g>
<g>
	<path d="M61.4,126.3c-0.8-0.9-2.2-1-3.1-0.3L0.4,174.7v5c0,0,0,0,0,0c0.5,0,1-0.2,1.4-0.5l59.2-49.9
		C62,128.6,62.1,127.2,61.4,126.3z"/>
</g>
<g>
	<path d="M150.6,186.6c-1.1-0.5-2.3,0-2.8,1.1c-0.1,0.1-1.9,3.9-5.6,9.3c-9.4,10.8-26,15.9-36.3,18.1c-19.6,4.3-40.1,3.6-50.3,0.7
		C35,210.1,6.8,227.6,0.4,231.7v4.8c0.4,0,0.9-0.1,1.2-0.4c0.3-0.2,31.8-21.9,52.7-16.1c10.4,2.9,31.2,3.9,52.4-0.7
		c9.1-2,17.1-4.8,23.7-8.3c-11.1,11.2-27.5,22.4-49.5,23.3c-28.5,1.1-41.8,9.1-48,15.5h6.7c6.7-5,19-10.3,41.5-11.2
		c19.6-0.7,38-9.5,53.2-25.3c4.9-5.1,8.8-10.2,11.6-14.3c2.5-3,4.5-6.3,5.8-9.8C152.2,188.3,151.7,187.1,150.6,186.6z"/>
</g>
<g>
	<path d="M250,171.6L217.2,130c-0.7-0.9-2.1-1.1-3.1-0.4c-0.9,0.7-1.1,2.1-0.4,3.1l34.5,43.7c0.4,0.5,1.1,0.8,1.7,0.8V171.6z"/>
</g>
</svg>
