<?xml version="1.0" encoding="utf-8"?>
<!-- Generator: Adobe Illustrator 21.0.0, SVG Export Plug-In . SVG Version: 6.00 Build 0)  -->
<svg version="1.1" id="Layer_1" xmlns="http://www.w3.org/2000/svg" xmlns:xlink="http://www.w3.org/1999/xlink" x="0px" y="0px"
	 viewBox="0 0 250 250" style="enable-background:new 0 0 250 250;" xml:space="preserve">
<path d="M143.1,15.8c0.3-0.2,0.5-0.5,0.5-0.9c0-0.6-0.5-1.1-1.1-1.1h-1.2c-0.6,0-1.1,0.5-1.1,1.1c0,0.1,0,0.2,0,0.3h-2.4l-1.9-6.3
	h-11.1l-1.9,6.3h-0.6c0-0.6-0.5-1.1-1.1-1.1h-3.7c-0.6,0-1.1,0.5-1.1,1.1c0,0.5,0.3,0.9,0.7,1c-1.5,1-2.4,2.7-2.4,4.7v5.7
	c0,3.1,2.6,5.7,5.7,5.7h20c3.1,0,5.7-2.6,5.7-5.7v-5.7C146.1,18.7,144.9,16.8,143.1,15.8z"/>
<path d="M201.1,227.7L175,129.4c2.6-0.5,4.6-2.8,4.6-5.5c0-3.1-2.5-5.6-5.6-5.6H172l-20.7-78c0.5-0.8,0.8-1.8,0.8-2.9
	c0-3.1-2.5-5.6-5.6-5.6h-34.1c-2.7,0-4.9,1.9-5.5,4.4c-0.2,0.2-0.3,0.4-0.3,0.7l-20,81.5c-2.6,0.5-4.6,2.8-4.6,5.5
	c0,1.8,0.8,3.4,2.2,4.4l-24.5,99.8c-0.3,1.1,0.4,2.1,1.4,2.4c1.1,0.3,2.1-0.4,2.4-1.4l24.4-99.6h41.5v109.6c0,1.1,0.9,2,2,2
	c1.1,0,2-0.9,2-2V129.5h37.5l26.4,99.1c0.3,1,1.4,1.7,2.4,1.4C200.7,229.8,201.4,228.7,201.1,227.7z M90.7,118.3l18.7-76.2
	c0.9,0.6,1.9,0.9,3,0.9h17v75.3H90.7z M133.4,118.3V43.1h13.1c0.5,0,0.9-0.1,1.4-0.2l20.1,75.5H133.4z"/>
</svg>
