<?xml version="1.0" encoding="utf-8"?>
<!-- Generator: Adobe Illustrator 21.0.0, SVG Export Plug-In . SVG Version: 6.00 Build 0)  -->
<svg version="1.1" id="Layer_1" xmlns="http://www.w3.org/2000/svg" xmlns:xlink="http://www.w3.org/1999/xlink" x="0px" y="0px"
	 viewBox="0 0 250 250" style="enable-background:new 0 0 250 250;" xml:space="preserve">
<style type="text/css">
	.st0{fill:#FFFFFF;}
</style>
<g>
	<circle class="st0" cx="124.6" cy="124.7" r="116.7"/>
	<path d="M124.6,243.8c-65.7,0-119.1-53.4-119.1-119.1S58.9,5.6,124.6,5.6c65.7,0,119.1,53.4,119.1,119.1S190.2,243.8,124.6,243.8z
		 M124.6,10.3c-63.1,0-114.4,51.3-114.4,114.4c0,63.1,51.3,114.4,114.4,114.4S239,187.8,239,124.7C239,61.6,187.7,10.3,124.6,10.3z"
		/>
</g>
<g>
	<circle cx="124.6" cy="21.9" r="4.9"/>
</g>
<g>
	<circle cx="122.5" cy="227.5" r="4.9"/>
</g>
<g>
	<circle cx="227.4" cy="124.7" r="4.9"/>
</g>
<g>
	<circle cx="21.8" cy="119.8" r="4.9"/>
</g>
<g>
	<ellipse transform="matrix(0.8651 -0.5016 0.5016 0.8651 -8.0771 41.4437)" cx="73" cy="35.7" rx="4.9" ry="4.9"/>
</g>
<g>
	<ellipse transform="matrix(0.8651 -0.5016 0.5016 0.8651 -84.1727 116.4481)" cx="174.4" cy="214.7" rx="4.9" ry="4.9"/>
</g>
<g>
	<ellipse transform="matrix(0.8651 -0.5016 0.5016 0.8651 -7.8621 116.9915)" cx="213.6" cy="73.1" rx="4.9" ry="4.9"/>
</g>
<g>
	<ellipse transform="matrix(0.8651 -0.5016 0.5016 0.8651 -81.8237 39.8472)" cx="33.2" cy="172" rx="4.9" ry="4.9"/>
</g>
<g>
	<ellipse transform="matrix(0.4998 -0.8662 0.8662 0.4998 -45.7257 67.4336)" cx="35.5" cy="73.3" rx="4.9" ry="4.9"/>
</g>
<g>
	<ellipse transform="matrix(0.4998 -0.8662 0.8662 0.4998 -47.7134 273.1559)" cx="212.6" cy="177.9" rx="4.9" ry="4.9"/>
</g>
<g>
	<ellipse transform="matrix(0.4998 -0.8662 0.8662 0.4998 57.1767 170.2527)" cx="176" cy="35.6" rx="4.9" ry="4.9"/>
</g>
<g>
	<ellipse transform="matrix(0.4998 -0.8662 0.8662 0.4998 -148.5468 165.4173)" cx="68.9" cy="211.3" rx="4.9" ry="4.9"/>
</g>
<g>
	<path d="M124.6,127c-1.3,0-2.3-1-2.3-2.3l-2.1-84.2c0-1.3,1-2.3,2.3-2.4c1.3,0,2.3,1,2.4,2.3l2.1,84.2
		C126.9,125.9,125.9,127,124.6,127C124.6,127,124.6,127,124.6,127z"/>
</g>
<g>
	<path d="M169.5,130h-44.9c-2.9,0-5.3-2.4-5.3-5.3c0-2.9,2.4-5.3,5.3-5.3h44.9c2.9,0,5.3,2.4,5.3,5.3
		C174.8,127.6,172.4,130,169.5,130z"/>
</g>
</svg>
